<mxfile host="3b71dbb4-e3f9-474a-aa9a-c63b1352f266" modified="2020-09-07T12:16:32.521Z" agent="5.0 (Windows NT 10.0; Win64; x64) AppleWebKit/537.36 (KHTML, like Gecko) Code/1.48.2 Chrome/78.0.3904.130 Electron/7.3.2 Safari/537.36" etag="nCYMIK-IWzrbJwpmK8jW" version="13.1.3">
    <diagram id="6hGFLwfOUW9BJ-s0fimq" name="Page-1">
        <mxGraphModel dx="1126" dy="536" grid="1" gridSize="10" guides="1" tooltips="1" connect="1" arrows="1" fold="1" page="1" pageScale="1" pageWidth="827" pageHeight="1169" math="0" shadow="0">
            <root>
                <mxCell id="0"/>
                <mxCell id="1" parent="0"/>
                <mxCell id="2" value="&lt;font color=&quot;#ff3333&quot;&gt;发现音乐&lt;/font&gt;" style="rounded=0;whiteSpace=wrap;html=1;fillColor=#dae8fc;strokeColor=#6c8ebf;" parent="1" vertex="1">
                    <mxGeometry x="257.5" y="60" width="100" height="40" as="geometry"/>
                </mxCell>
                <mxCell id="8" value="我的音乐" style="rounded=0;whiteSpace=wrap;html=1;fillColor=#fff2cc;strokeColor=#d6b656;fontColor=#FF0000;" parent="1" vertex="1">
                    <mxGeometry x="364" y="60" width="100" height="40" as="geometry"/>
                </mxCell>
                <mxCell id="9" value="朋友" style="rounded=0;whiteSpace=wrap;html=1;fillColor=#f8cecc;strokeColor=#b85450;fontColor=#990000;" parent="1" vertex="1">
                    <mxGeometry x="480" y="60" width="100" height="40" as="geometry"/>
                </mxCell>
                <mxCell id="10" value="商城" style="rounded=0;whiteSpace=wrap;html=1;fillColor=#e1d5e7;strokeColor=#9673a6;fontColor=#CC0000;" parent="1" vertex="1">
                    <mxGeometry x="590" y="60" width="100" height="40" as="geometry"/>
                </mxCell>
                <mxCell id="11" value="音乐人" style="rounded=0;whiteSpace=wrap;html=1;fillColor=#d5e8d4;strokeColor=#82b366;fontColor=#FF0000;" parent="1" vertex="1">
                    <mxGeometry x="710" y="60" width="100" height="40" as="geometry"/>
                </mxCell>
                <mxCell id="13" value="" style="shape=curlyBracket;whiteSpace=wrap;html=1;rounded=1;fontColor=#FF0000;rotation=90;" vertex="1" parent="1">
                    <mxGeometry x="300" y="-190" width="50" height="635" as="geometry"/>
                </mxCell>
                <mxCell id="14" value="&lt;font color=&quot;#ff3333&quot;&gt;歌手&lt;/font&gt;" style="rounded=0;whiteSpace=wrap;html=1;fillColor=#dae8fc;strokeColor=#6c8ebf;" vertex="1" parent="1">
                    <mxGeometry x="570" y="170" width="100" height="40" as="geometry"/>
                </mxCell>
                <mxCell id="15" value="&lt;font color=&quot;#ff3333&quot;&gt;主播电台&lt;/font&gt;" style="rounded=0;whiteSpace=wrap;html=1;fillColor=#dae8fc;strokeColor=#6c8ebf;" vertex="1" parent="1">
                    <mxGeometry x="413.5" y="170" width="100" height="40" as="geometry"/>
                </mxCell>
                <mxCell id="16" value="&lt;font color=&quot;#ff3333&quot;&gt;推荐&lt;/font&gt;" style="rounded=0;whiteSpace=wrap;html=1;fillColor=#dae8fc;strokeColor=#6c8ebf;" vertex="1" parent="1">
                    <mxGeometry y="170" width="100" height="40" as="geometry"/>
                </mxCell>
                <mxCell id="17" value="&lt;font color=&quot;#ff3333&quot;&gt;排行榜&lt;/font&gt;" style="rounded=0;whiteSpace=wrap;html=1;fillColor=#dae8fc;strokeColor=#6c8ebf;" vertex="1" parent="1">
                    <mxGeometry x="120" y="170" width="100" height="40" as="geometry"/>
                </mxCell>
                <mxCell id="18" value="&lt;font color=&quot;#ff3333&quot;&gt;歌单&lt;/font&gt;" style="rounded=0;whiteSpace=wrap;html=1;fillColor=#dae8fc;strokeColor=#6c8ebf;" vertex="1" parent="1">
                    <mxGeometry x="264" y="170" width="100" height="40" as="geometry"/>
                </mxCell>
            </root>
        </mxGraphModel>
    </diagram>
</mxfile>